<svg width="22" height="22" viewBox="0 0 22 22" fill="none" xmlns="http://www.w3.org/2000/svg">
    <path fill-rule="evenodd" clip-rule="evenodd" d="M14.9111 7.05482C14.9111 7.05482 10.2299 15.7299 10.1489 15.8075C9.88165 16.0755 9.4618 16.0614 9.21176 15.7793L6.17935 12.803C5.92864 12.5208 5.94257 12.0695 6.20986 11.8085C6.47715 11.5405 6.897 11.5546 7.14771 11.8367L9.52083 14.1642L13.7624 6.34953C13.9454 6.01804 14.3507 5.89814 14.6684 6.09562C14.9854 6.28605 15.0942 6.72333 14.9111 7.05482ZM11 0C4.92525 0 0 4.9225 0 11C0 17.0775 4.92525 22 11 22C17.0747 22 22 17.0775 22 11C22 4.9225 17.0747 0 11 0Z" fill="#FFFFFE"/>
</svg>
