<svg width="21" height="28" viewBox="0 0 21 28" fill="none" xmlns="http://www.w3.org/2000/svg">
    <path fill-rule="evenodd" clip-rule="evenodd" d="M8 10.5C8 11.8808 9.11917 13 10.5 13C11.8808 13 13 11.8808 13 10.5C13 9.11917 11.8808 8 10.5 8C9.11917 8 8 9.11917 8 10.5ZM6 10.5C6 8.0142 8.0151 6 10.5 6C12.9849 6 15 8.0142 15 10.5C15 12.9858 12.9849 15 10.5 15C8.0151 15 6 12.9858 6 10.5ZM0 10.5C0 14.8907 8.75438 28.0096 10.5 28C12.2185 28.0096 21 14.8312 21 10.5C21 4.70137 16.2986 0 10.5 0C4.70138 0 0 4.70137 0 10.5Z" fill="#50E3C2"/>
</svg>
